<svg width="169" height="126" viewBox="0 0 169 126" fill="none" xmlns="http://www.w3.org/2000/svg">
<path d="M10.0187 0.816436C5.6685 2.66199 1.45009 8.19865 0.659137 13.0762C-0.922766 22.1721 1.45009 24.2813 41.7886 51.0419C74.6131 72.9249 80.0179 76.0887 84.5 76.0887C88.9821 76.0887 94.3869 72.9249 127.343 51.0419C157.531 31.0044 165.441 25.0723 167.154 21.513C169.923 15.5809 168.605 8.9896 163.463 4.11207L159.509 0.289135L86.0819 0.0254842C45.7434 -0.106341 11.4688 0.289135 10.0187 0.816436Z" fill="white"/>
<path d="M0.395476 75.9569L0.790952 116.955L5.14119 121.173L9.35959 125.523H84.5H159.64L163.859 121.173L168.209 116.955L168.605 75.9569L169 35.0911L133.012 59.0833C110.601 74.1113 94.6505 83.8664 90.8276 85.0528C80.5452 87.953 75.9314 85.8438 35.9883 59.0833L0 35.0911L0.395476 75.9569Z" fill="white"/>
</svg>
