<svg width="169" height="169" viewBox="0 0 169 169" fill="none" xmlns="http://www.w3.org/2000/svg">
<path fill-rule="evenodd" clip-rule="evenodd" d="M84.5 169C131.168 169 169 131.168 169 84.5C169 37.8319 131.168 0 84.5 0C37.8319 0 0 37.8319 0 84.5C0 131.168 37.8319 169 84.5 169ZM114 31.1567V42.4878L104.976 43.0108L95.7794 43.5338L95.2588 52.5987L94.7383 61.8378H104.282C113.653 61.8378 114 62.0122 114 66.5446C114 69.3338 113.479 74.3892 112.959 77.8757C112.397 80.9387 112.095 82.5854 111.109 83.4707C109.963 84.5 107.893 84.5 103.415 84.5H94.9118V116.75V149H81.0294H67.1471V116.75V84.5H61.0735H55V73.1689V61.8378H60.9H66.6265L67.4941 48.5892C68.8824 26.973 77.0382 20 100.638 20H114V31.1567Z" fill="white"/>
</svg>
