<svg width="169" height="169" viewBox="0 0 169 169" fill="none" xmlns="http://www.w3.org/2000/svg">
<path d="M84.5188 41.1705C60.5403 41.1705 41.199 60.5161 41.199 84.5C41.199 108.484 60.5403 127.829 84.5188 127.829C108.497 127.829 127.839 108.484 127.839 84.5C127.839 60.5161 108.497 41.1705 84.5188 41.1705ZM84.5188 112.67C69.0233 112.67 56.3553 100.037 56.3553 84.5C56.3553 68.9632 68.9855 56.3302 84.5188 56.3302C100.052 56.3302 112.682 68.9632 112.682 84.5C112.682 100.037 100.014 112.67 84.5188 112.67ZM139.715 39.3981C139.715 45.017 135.191 49.5046 129.611 49.5046C123.993 49.5046 119.506 44.9793 119.506 39.3981C119.506 33.817 124.031 29.2917 129.611 29.2917C135.191 29.2917 139.715 33.817 139.715 39.3981ZM168.406 49.6554C167.765 36.1173 164.674 24.1253 154.758 14.2452C144.88 4.365 132.891 1.27273 119.356 0.593942C105.406 -0.197981 63.5941 -0.197981 49.6443 0.593942C36.147 1.23502 24.1577 4.32729 14.242 14.2075C4.32633 24.0876 1.27245 36.0796 0.593809 49.6177C-0.197936 63.5706 -0.197936 105.392 0.593809 119.345C1.23475 132.883 4.32633 144.875 14.242 154.755C24.1577 164.635 36.1093 167.727 49.6443 168.406C63.5941 169.198 105.406 169.198 119.356 168.406C132.891 167.765 144.88 164.673 154.758 154.755C164.636 144.875 167.728 132.883 168.406 119.345C169.198 105.392 169.198 63.6083 168.406 49.6554ZM150.385 134.316C147.444 141.707 141.751 147.401 134.323 150.38C123.201 154.793 96.8098 153.774 84.5188 153.774C72.2279 153.774 45.7987 154.755 34.7143 150.38C27.3246 147.439 21.6316 141.745 18.6532 134.316C14.242 123.191 15.26 96.7937 15.26 84.5C15.26 72.2063 14.2797 45.7712 18.6532 34.6843C21.5939 27.293 27.2869 21.5987 34.7143 18.6196C45.8364 14.2075 72.2279 15.2256 84.5188 15.2256C96.8098 15.2256 123.239 14.2452 134.323 18.6196C141.713 21.561 147.406 27.2553 150.385 34.6843C154.796 45.8089 153.778 72.2063 153.778 84.5C153.778 96.7937 154.796 123.229 150.385 134.316Z" fill="white"/>
</svg>
